<svg xmlns="http://www.w3.org/2000/svg" version="1.1" xmlns:xlink="http://www.w3.org/1999/xlink" xmlns:svgjs="http://svgjs.dev/svgjs" width="1000" height="623" viewBox="0 0 1000 623"><g transform="matrix(1,0,0,1,-0.6060606060606233,0.2522267206477409)"><svg viewBox="0 0 396 247" data-background-color="#fffbf4" preserveAspectRatio="xMidYMid meet" height="623" width="1000" xmlns="http://www.w3.org/2000/svg" xmlns:xlink="http://www.w3.org/1999/xlink"><g id="tight-bounds" transform="matrix(1,0,0,1,0.2400000000000091,-0.09999999999999432)"><svg viewBox="0 0 395.52 247.2" height="247.2" width="395.52"><g><svg></svg></g><g><svg viewBox="0 0 395.52 247.2" height="247.2" width="395.52"><g transform="matrix(1,0,0,1,75.54432,65.02775502074688)"><svg viewBox="0 0 244.43135999999998 117.14448995850623" height="117.14448995850623" width="244.43135999999998"><g><svg viewBox="0 0 244.43135999999998 117.14448995850623" height="117.14448995850623" width="244.43135999999998"><g><svg viewBox="0 0 244.43135999999998 117.14448995850623" height="117.14448995850623" width="244.43135999999998"><g><svg viewBox="0 0 244.43135999999998 117.14448995850623" height="117.14448995850623" width="244.43135999999998"><g id="textblocktransform"><svg viewBox="0 0 244.43135999999998 117.14448995850623" height="117.14448995850623" width="244.43135999999998" id="textblock"><g><svg viewBox="0 0 244.43135999999998 117.14448995850623" height="117.14448995850623" width="244.43135999999998"><g transform="matrix(1,0,0,1,0,0)"><svg width="244.43135999999998" viewBox="3.3499999046325684 -34.650001525878906 72.30000305175781 34.650001525878906" height="117.14448995850623" data-palette-color="#3d4950"><path d="M23.75-4.8L19.85-4.8Q19.35-6 18.53-7.85 17.7-9.7 16.75-11.85 15.8-14 14.73-16.28 13.65-18.55 12.7-20.58 11.75-22.6 10.93-24.2 10.1-25.8 9.6-26.65L9.6-26.65Q9.05-20.75 8.7-13.88 8.35-7 8.1 0L8.1 0 3.35 0Q3.55-4.5 3.8-9.08 4.05-13.65 4.38-18.07 4.7-22.5 5.08-26.7 5.45-30.9 5.9-34.65L5.9-34.65 10.15-34.65Q11.5-32.45 13.05-29.45 14.6-26.45 16.15-23.18 17.7-19.9 19.15-16.63 20.6-13.35 21.8-10.65L21.8-10.65Q23-13.35 24.45-16.63 25.9-19.9 27.45-23.18 29-26.45 30.55-29.45 32.1-32.45 33.45-34.65L33.45-34.65 37.7-34.65Q39.4-17.9 40.25 0L40.25 0 35.5 0Q35.25-7 34.9-13.88 34.55-20.75 34-26.65L34-26.65Q33.5-25.8 32.68-24.2 31.85-22.6 30.9-20.58 29.95-18.55 28.88-16.28 27.8-14 26.85-11.85 25.9-9.7 25.08-7.85 24.25-6 23.75-4.8L23.75-4.8ZM75.65 0L71.6 0Q70.5-1.85 69.07-4.15 67.65-6.45 66-8.93 64.35-11.4 62.57-13.95 60.8-16.5 59.05-18.88 57.3-21.25 55.65-23.35 54-25.45 52.6-27.05L52.6-27.05 52.6 0 47.85 0 47.85-34.65 51.7-34.65Q54.05-32.15 56.72-28.83 59.4-25.5 62.02-21.98 64.65-18.45 66.97-15.05 69.3-11.65 70.9-9L70.9-9 70.9-34.65 75.65-34.65 75.65 0Z" opacity="1" transform="matrix(1,0,0,1,0,0)" fill="#3d4950" className="undefined-text-0" data-fill-palette-color="primary" id="text-0"></path></svg></g></svg></g></svg></g></svg></g></svg></g></svg></g></svg></g><path d="M158.121 59.028L158.121 10.612 384.097 10.612 384.097 236.588 158.121 236.588 158.121 188.172 168.685 188.172 168.685 226.024 373.533 226.024 373.533 21.176 168.685 21.176 168.685 59.028Z" fill="#3d4950" stroke="transparent" data-fill-palette-color="primary"></path></svg></g><defs></defs></svg><rect width="395.52" height="247.2" fill="none" stroke="none" visibility="hidden"></rect></g></svg></g></svg>