<svg xmlns="http://www.w3.org/2000/svg" version="1.1" xmlnsXlink="http://www.w3.org/1999/xlink" xmlnsSvgjs="http://svgjs.dev/svgjs" width="2000" height="2470" viewBox="0 0 2000 2470"><g transform="matrix(1,0,0,1,2.435000000000173,1)"><svg viewBox="0 0 200 247" data-background-color="#282634" preserveAspectRatio="xMidYMid meet" height="2470" width="2000" xmlns="http://www.w3.org/2000/svg" xmlnsXlink="http://www.w3.org/1999/xlink"><g id="tight-bounds" transform="matrix(1,0,0,1,-0.2435000000000116,-0.09999999999999432)"><svg viewBox="0 0 200.48652444444446 247.2" height="247.2" width="200.48652444444446"><g><svg></svg></g><g><svg viewBox="0 0 200.48652444444446 247.2" height="247.2" width="200.48652444444446"><g transform="matrix(1,0,0,1,0,47.215199999999996)"><svg viewBox="0 0 200.48652444444446 152.7696" height="152.7696" width="200.48652444444446"><g><svg viewBox="0 0 200.48652444444446 152.7696" height="152.7696" width="200.48652444444446"><g><svg viewBox="0 0 200.48652444444446 152.7696" height="152.7696" width="200.48652444444446"><g><svg viewBox="0 0 200.48652444444446 152.7696" height="152.7696" width="200.48652444444446"><g id="textblocktransform"><svg viewBox="0 0 200.48652444444446 152.7696" height="152.7696" width="200.48652444444446" id="textblock"><g><svg viewBox="0 0 200.48652444444446 152.7696" height="152.7696" width="200.48652444444446"><g transform="matrix(1,0,0,1,0,0)"><svg width="200.48652444444446" viewBox="3.049999952316284 -40.5 53.150001525878906 40.5" height="152.7696" data-palette-color="#ca9487"><path d="M7.65 0L3.05 0 3.8-40.5 9.35-40.5 16.5-7.65 23.7-40.5 29.2-40.5 29.95 0 25.4 0 24.95-29.4 18.1 0 14.9 0 8.1-29.4 7.65 0ZM40.95 0L36.15 0 36.15-40.5 40-40.5 51.5-13.6 51.5-40.5 56.2-40.5 56.2 0 52.6 0 40.95-27.65 40.95 0Z" opacity="1" transform="matrix(1,0,0,1,0,0)" fill="#ca9487" className="undefined-text-0" data-fill-palette-color="primary" id="text-0"></path></svg></g></svg></g></svg></g></svg></g><g></g></svg></g></svg></g></svg></g><path d="M0 41.215L0 1 200.487 1 200.487 41.215 186.71 41.215 186.71 14.777 13.777 14.777 13.777 41.215 0 41.215M0 205.985L0 246.2 200.487 246.2 200.487 205.985 186.71 205.985 186.71 232.423 13.777 232.423 13.777 205.985 0 205.985" fill="#ca9487" stroke="transparent" data-fill-palette-color="primary"></path></svg></g><defs></defs></svg><rect width="200.48652444444446" height="247.2" fill="none" stroke="none" visibility="hidden"></rect></g></svg></g></svg>